<svg width="295" height="197" viewBox="0 0 295 197" fill="none" xmlns="http://www.w3.org/2000/svg">
<g clip-path="url(#clip0_1809_4161)">
<mask id="mask0_1809_4161" style="mask-type:alpha" maskUnits="userSpaceOnUse" x="0" y="0" width="295" height="197">
<rect x="295" width="196.012" height="295" transform="rotate(90 295 0)" fill="#C4C4C4"/>
</mask>
<g mask="url(#mask0_1809_4161)">
<path d="M295.656 200.814L295.656 -91.915L-11.2342 -91.9151L-11.2342 200.814L295.656 200.814Z" fill="#121713"/>
<path d="M142.207 201.235L-11.3153 201.235L-11.3153 54.8701L142.207 201.235Z" fill="#4C4E8E"/>
<path d="M65.5625 201.445L-11.3144 201.445L-11.3144 128.105L65.5625 201.445Z" fill="#FF5545"/>
<path d="M219.012 54.7646L142.212 54.7646L142.212 -18.5752L219.012 54.7646Z" fill="#4C4E8E"/>
<path d="M65.5625 54.7646L-11.3144 54.7646L-11.3144 -18.5752L65.5625 54.7646Z" fill="#4C4E8E"/>
<path d="M65.7188 128.315L65.4103 128.315L65.5646 128.21L65.4103 128.105L65.7188 128.105L142.441 54.8701L142.441 128.105L142.441 128.315L142.441 201.55L65.7188 128.315Z" fill="#FF5545"/>
<path d="M219.165 55.08L219.165 -91.915L295.656 -91.915L295.656 127.999L219.165 55.08Z" fill="#FF5545"/>
<path d="M295.656 201.235L142.211 201.235L142.211 54.8701L295.656 201.235Z" fill="#4C4E8E"/>
<path d="M65.7158 -91.7041L142.207 -18.7846L142.207 128.21L65.7158 128.21L65.7158 -91.7041Z" fill="#FF5545"/>
<path d="M295.809 54.7646L218.932 54.7646L218.932 -18.5752L295.809 54.7646Z" fill="#121713"/>
<path d="M219.012 201.445L142.212 201.445L142.212 128.105L219.012 201.445Z" fill="#121713"/>
<path d="M142.363 128.21L65.4864 128.21L65.4864 54.8701L142.363 128.21Z" fill="#4C4E8E"/>
</g>
</g>
<defs>
<clipPath id="clip0_1809_4161">
<rect width="295" height="196.012" fill="white"/>
</clipPath>
</defs>
</svg>
