<svg width="201" height="201" viewBox="0 0 201 201" fill="none" xmlns="http://www.w3.org/2000/svg">
<path d="M201 100.5C201 122.917 193.505 144.691 179.707 162.359C165.909 180.026 146.6 192.574 124.851 198.005C103.102 203.437 80.1607 201.441 59.6763 192.335C39.1918 183.229 22.3399 167.536 11.8003 147.751L56.1502 124.125C61.42 134.018 69.8459 141.864 80.0881 146.418C90.3304 150.971 101.801 151.968 112.675 149.253C123.55 146.537 133.205 140.263 140.104 131.429C147.003 122.595 150.75 111.709 150.75 100.5L201 100.5Z" fill="#FF4033"/>
<path d="M11.8656 147.873C5.6445 136.233 1.77692 123.482 0.483671 110.348C-0.809578 97.2136 0.496837 83.9531 4.32832 71.3237L52.4142 85.9118C50.4984 92.2266 49.8452 98.8568 50.4918 105.424C51.1385 111.991 53.0723 118.367 56.1828 124.186L11.8656 147.873Z" fill="#E6D3A3"/>
<path d="M4.18476 71.8012C7.95355 59.1529 14.1767 47.3707 22.4989 37.1275C30.8211 26.8842 41.0794 18.3804 52.688 12.1017L76.594 56.3008C70.7897 59.4402 65.6605 63.6921 61.4994 68.8137C57.3384 73.9354 54.2268 79.8264 52.3424 86.1506L4.18476 71.8012Z" fill="#8BB8A2"/>
<path d="M51.8404 12.5654C75.1621 -0.339923 102.655 -3.45218 128.272 3.9133L114.386 52.2066C101.578 48.5239 87.831 50.08 76.1702 56.5327L51.8404 12.5654Z" fill="#4C4E8E"/>
<path d="M127.882 3.80214C147.447 9.34232 164.871 20.687 177.853 36.3377L139.176 68.4189C132.685 60.5935 123.973 54.9212 114.191 52.1511L127.882 3.80214Z" fill="#432E2D"/>
<path d="M176.502 34.7429C192.4 53.1183 201.103 76.6314 200.999 100.93L150.75 100.715C150.801 88.5657 146.45 76.8091 138.501 67.6214L176.502 34.7429Z" fill="#432E2D"/>
<g filter="url(#filter0_d_1802_4235)">
<circle cx="100.502" cy="100.5" r="54.8182" fill="#F2F8FB"/>
</g>
<g filter="url(#filter1_d_1802_4235)">
<circle cx="100.501" cy="100.5" r="60.5284" fill="white"/>
</g>
<defs>
<filter id="filter0_d_1802_4235" x="28.5529" y="28.551" width="143.898" height="143.898" filterUnits="userSpaceOnUse" color-interpolation-filters="sRGB">
<feFlood flood-opacity="0" result="BackgroundImageFix"/>
<feColorMatrix in="SourceAlpha" type="matrix" values="0 0 0 0 0 0 0 0 0 0 0 0 0 0 0 0 0 0 127 0" result="hardAlpha"/>
<feOffset/>
<feGaussianBlur stdDeviation="8.56534"/>
<feColorMatrix type="matrix" values="0 0 0 0 0 0 0 0 0 0 0 0 0 0 0 0 0 0 0.08 0"/>
<feBlend mode="normal" in2="BackgroundImageFix" result="effect1_dropShadow_1802_4235"/>
<feBlend mode="normal" in="SourceGraphic" in2="effect1_dropShadow_1802_4235" result="shape"/>
</filter>
<filter id="filter1_d_1802_4235" x="10.9727" y="36.9717" width="179.059" height="179.057" filterUnits="userSpaceOnUse" color-interpolation-filters="sRGB">
<feFlood flood-opacity="0" result="BackgroundImageFix"/>
<feColorMatrix in="SourceAlpha" type="matrix" values="0 0 0 0 0 0 0 0 0 0 0 0 0 0 0 0 0 0 127 0" result="hardAlpha"/>
<feMorphology radius="23" operator="erode" in="SourceAlpha" result="effect1_dropShadow_1802_4235"/>
<feOffset dy="26"/>
<feGaussianBlur stdDeviation="26"/>
<feComposite in2="hardAlpha" operator="out"/>
<feColorMatrix type="matrix" values="0 0 0 0 0.254902 0 0 0 0 0.27451 0 0 0 0 0.305882 0 0 0 0.3 0"/>
<feBlend mode="normal" in2="BackgroundImageFix" result="effect1_dropShadow_1802_4235"/>
<feBlend mode="normal" in="SourceGraphic" in2="effect1_dropShadow_1802_4235" result="shape"/>
</filter>
</defs>
</svg>
