<svg width="15" height="15" viewBox="0 0 15 15" fill="none" xmlns="http://www.w3.org/2000/svg">
<path d="M7.52344 0.78125C7.67969 0.585938 7.99219 0.585938 8.1875 0.78125L14.5938 7.1875C14.7891 7.38281 14.7891 7.65625 14.5938 7.85156L8.1875 14.2578C7.99219 14.4531 7.67969 14.4531 7.52344 14.2578L7.21094 13.9844C7.05469 13.7891 7.05469 13.5156 7.21094 13.3203L12.3672 8.16406H1.46875C1.19531 8.16406 1 7.96875 1 7.69531V7.30469C1 7.07031 1.19531 6.83594 1.46875 6.83594H12.3672L7.25 1.71875C7.05469 1.52344 7.05469 1.25 7.25 1.05469L7.52344 0.78125Z" fill="white" stroke="white" stroke-width="0.5"/>
</svg>
