<svg width="9" height="17" viewBox="0 0 9 17" fill="none" xmlns="http://www.w3.org/2000/svg">
<path d="M8 14.125V2.875C8 1.85938 7.14062 1 6.125 1H0.96875C0.695312 1 0.5 1.23438 0.5 1.46875V1.78125C0.5 2.05469 0.695312 2.25 0.96875 2.25H6.125C6.4375 2.25 6.75 2.5625 6.75 2.875V14.125C6.75 14.4766 6.4375 14.75 6.125 14.75H0.96875C0.695312 14.75 0.5 14.9844 0.5 15.2188V15.5312C0.5 15.8047 0.695312 16 0.96875 16H6.125C7.14062 16 8 15.1797 8 14.125Z" fill="white" stroke="white" stroke-width="0.5"/>
</svg>
