<svg width="596" height="264" viewBox="0 0 596 264" fill="none" xmlns="http://www.w3.org/2000/svg">
<g clip-path="url(#clip0_1209_5461)">
<path d="M613.681 -87.1971L613.681 352.509L-17.9455 352.509L-17.9455 -87.1971L613.681 -87.1971Z" fill="#121713"/>
<path d="M297.87 -87.8295L-18.1019 -87.8295L-18.1019 132.023L297.87 -87.8295Z" fill="#4C4E8E"/>
<path d="M-18.103 352.351L140.121 352.351L140.121 242.345L-18.103 352.351Z" fill="#006794"/>
<path d="M297.871 352.351L455.937 352.351L455.937 242.345L297.871 352.351Z" fill="#006794"/>
<path d="M140.121 -88.1437L-18.103 -88.1437L-18.103 22.0195L140.121 -88.1437Z" fill="#FF5545"/>
<path d="M455.937 132.185L297.871 132.185L297.871 242.348L455.937 132.185Z" fill="#4C4E8E"/>
<path d="M140.121 132.185L-18.103 132.185L-18.103 242.348L140.121 132.185Z" fill="#4C4E8E"/>
<path d="M140.439 21.7024L139.804 21.7024L140.122 21.8602L139.804 22.018L140.439 22.018L298.346 132.023L298.346 22.018L298.346 21.7024L298.346 -88.303L140.439 21.7024Z" fill="#FF5545"/>
<path d="M456.251 131.709L456.251 352.509L613.681 352.509L613.681 22.177L456.251 131.709Z" fill="#FF5545"/>
<path d="M613.685 -87.8266L297.872 -87.8266L297.872 132.026L613.685 -87.8266Z" fill="#4C4E8E"/>
<path d="M140.44 352.194L297.87 242.663L297.87 21.8625L140.44 21.8625L140.44 352.194Z" fill="#FF5545"/>
<path d="M614 132.185L455.776 132.185L455.776 242.348L614 132.185Z" fill="#121713"/>
<path d="M455.938 -88.1437L297.873 -88.1437L297.873 22.0195L455.938 -88.1437Z" fill="#121713"/>
<path d="M298.189 21.8602L139.965 21.8602L139.965 132.023L298.189 21.8602Z" fill="#4C4E8E"/>
</g>
<defs>
<clipPath id="clip0_1209_5461">
<rect width="596" height="264" fill="white"/>
</clipPath>
</defs>
</svg>
